<?xml version="1.0" standalone="no"?>
<!DOCTYPE svg PUBLIC "-//W3C//DTD SVG 20010904//EN"
 "http://www.w3.org/TR/2001/REC-SVG-20010904/DTD/svg10.dtd">
<svg version="1.0" xmlns="http://www.w3.org/2000/svg"
 width="128.000000pt" height="128.000000pt" viewBox="0 0 128.000000 128.000000"
 preserveAspectRatio="xMidYMid meet">

<g transform="translate(0.000000,128.000000) scale(0.100000,-0.100000)"
fill="#000000" stroke="none">
<path d="M223 1209 c-111 -139 -132 -337 -52 -494 30 -61 81 -125 98 -125 24
0 18 23 -19 72 -63 84 -84 146 -84 258 0 112 21 174 84 258 22 29 40 57 40 62
0 23 -37 6 -67 -31z"/>
<path d="M1030 1240 c0 -5 18 -33 40 -62 63 -84 84 -146 84 -258 0 -112 -21
-174 -84 -258 -37 -49 -43 -72 -19 -72 17 0 68 64 98 125 43 84 58 185 43 278
-13 79 -57 174 -102 225 -29 31 -60 43 -60 22z"/>
<path d="M364 1143 c-14 -16 -38 -53 -53 -83 -22 -46 -26 -69 -26 -140 0 -71
4 -94 26 -140 27 -54 71 -110 89 -110 23 0 18 23 -14 65 -85 111 -85 259 0
370 32 42 37 65 14 65 -5 0 -21 -12 -36 -27z"/>
<path d="M905 1160 c-3 -5 10 -30 29 -55 85 -111 85 -259 0 -370 -32 -42 -37
-65 -14 -65 18 0 62 56 89 110 22 46 26 69 26 140 0 71 -4 94 -26 140 -27 54
-71 110 -89 110 -5 0 -11 -4 -15 -10z"/>
<path d="M474 1034 c-41 -70 -44 -139 -9 -210 28 -57 49 -74 66 -57 7 7 2 23
-15 48 -46 67 -46 142 -1 209 30 44 31 56 5 56 -12 0 -29 -16 -46 -46z"/>
<path d="M780 1071 c0 -5 11 -27 25 -47 45 -67 45 -142 -1 -209 -26 -38 -21
-64 9 -52 26 10 67 107 67 158 0 60 -46 153 -78 157 -12 2 -22 -1 -22 -7z"/>
<path d="M605 975 c-29 -28 -32 -65 -8 -105 16 -28 15 -34 -107 -409 l-124
-380 -41 -3 c-28 -2 -40 -8 -40 -18 0 -13 48 -15 375 -15 327 0 375 2 375 15
0 10 -12 16 -41 18 l-40 3 -124 380 c-122 375 -123 381 -107 409 9 15 17 40
17 54 0 37 -41 76 -80 76 -19 0 -40 -9 -55 -25z m85 -30 c26 -32 -13 -81 -47
-59 -35 22 -23 74 17 74 10 0 23 -7 30 -15z m-3 -171 l22 -65 -46 -20 c-52
-22 -67 -24 -60 -6 2 6 15 45 28 85 12 39 26 72 29 72 3 0 16 -30 27 -66z m57
-177 c10 -32 16 -60 14 -62 -2 -1 -34 18 -73 43 l-70 45 50 23 c28 12 53 19
56 15 3 -3 13 -32 23 -64z m-4 -108 c0 -3 -52 -26 -115 -51 -63 -25 -115 -45
-115 -44 0 2 57 172 65 194 3 8 30 -5 85 -40 44 -29 80 -56 80 -59z m74 -107
c14 -42 26 -88 26 -101 0 -14 6 -32 13 -40 7 -9 21 -43 31 -76 10 -33 21 -66
23 -72 4 -10 -49 -13 -246 -13 -138 0 -251 3 -251 8 1 27 22 32 150 34 112 3
135 6 135 18 0 12 -22 15 -129 18 l-128 3 6 31 c3 17 13 39 21 48 8 9 15 30
15 46 0 16 4 35 9 43 7 11 268 127 293 130 3 1 18 -34 32 -77z"/>
<path d="M544 307 c-9 -25 0 -62 16 -62 10 0 15 10 15 34 0 36 -21 54 -31 28z"/>
<path d="M644 307 c-9 -25 0 -62 16 -62 10 0 15 10 15 34 0 36 -21 54 -31 28z"/>
<path d="M744 307 c-9 -25 0 -62 16 -62 10 0 15 10 15 34 0 36 -21 54 -31 28z"/>
<path d="M745 150 c-13 -21 11 -31 61 -28 36 2 49 7 49 18 0 19 -99 27 -110
10z"/>
</g>
</svg>
